<svg width="40" height="40" viewBox="0 0 40 40" fill="none" xmlns="http://www.w3.org/2000/svg">
<path d="M27.9166 5.93337V3.33337C27.9166 2.65004 27.35 2.08337 26.6666 2.08337C25.9833 2.08337 25.4166 2.65004 25.4166 3.33337V5.83337H14.5833V3.33337C14.5833 2.65004 14.0166 2.08337 13.3333 2.08337C12.65 2.08337 12.0833 2.65004 12.0833 3.33337V5.93337C7.58331 6.35004 5.39998 9.03337 5.06664 13.0167C5.03331 13.5 5.43331 13.9 5.89998 13.9H34.1C34.5833 13.9 34.9833 13.4834 34.9333 13.0167C34.6 9.03337 32.4166 6.35004 27.9166 5.93337Z" fill="#5E88BB"/>
<path opacity="0.4" d="M35 18.0667V20.9666C35 21.9833 34.1 22.7667 33.1 22.6C32.6333 22.5333 32.15 22.4833 31.6667 22.4833C26.6167 22.4833 22.5 26.6 22.5 31.65C22.5 32.4166 22.8 33.4833 23.1167 34.45C23.4833 35.5333 22.6833 36.65 21.5333 36.65H13.3333C7.5 36.65 5 33.3166 5 28.3166V18.05C5 17.1333 5.75 16.3833 6.66667 16.3833H33.3333C34.25 16.4 35 17.15 35 18.0667Z" fill="#5E88BB"/>
<path d="M31.6667 25C27.9833 25 25 27.9833 25 31.6667C25 32.9167 25.35 34.1 25.9667 35.1C27.1167 37.0333 29.2333 38.3333 31.6667 38.3333C34.1 38.3333 36.2167 37.0333 37.3667 35.1C37.9833 34.1 38.3333 32.9167 38.3333 31.6667C38.3333 27.9833 35.35 25 31.6667 25ZM35.1167 30.95L31.5667 34.2333C31.3333 34.45 31.0167 34.5666 30.7167 34.5666C30.4 34.5666 30.0833 34.45 29.8333 34.2L28.1833 32.55C27.7 32.0667 27.7 31.2667 28.1833 30.7833C28.6667 30.3 29.4667 30.3 29.95 30.7833L30.75 31.5834L33.4167 29.1167C33.9167 28.65 34.7167 28.6833 35.1833 29.1833C35.65 29.6833 35.6167 30.4667 35.1167 30.95Z" fill="#5E88BB"/>
<path d="M14.1667 25C13.7333 25 13.3 24.8166 12.9833 24.5166C12.6833 24.2 12.5 23.7666 12.5 23.3333C12.5 22.9 12.6833 22.4667 12.9833 22.15C13.3667 21.7667 13.95 21.5833 14.5 21.7C14.6 21.7166 14.7 21.75 14.8 21.8C14.9 21.8333 15 21.8833 15.1 21.95C15.1833 22.0167 15.2667 22.0833 15.35 22.15C15.65 22.4667 15.8333 22.9 15.8333 23.3333C15.8333 23.7666 15.65 24.2 15.35 24.5166C15.2667 24.5833 15.1833 24.65 15.1 24.7166C15 24.7833 14.9 24.8333 14.8 24.8667C14.7 24.9167 14.6 24.95 14.5 24.9667C14.3833 24.9833 14.2667 25 14.1667 25Z" fill="#5E88BB"/>
<path d="M20 25C19.5666 25 19.1333 24.8166 18.8166 24.5166C18.5166 24.2 18.3333 23.7667 18.3333 23.3333C18.3333 22.9 18.5166 22.4667 18.8166 22.15C19.45 21.5333 20.5666 21.5333 21.1833 22.15C21.4833 22.4667 21.6666 22.9 21.6666 23.3333C21.6666 23.7667 21.4833 24.2 21.1833 24.5166C20.8666 24.8166 20.4333 25 20 25Z" fill="#5E88BB"/>
<path d="M14.1667 30.8333C13.7333 30.8333 13.3 30.65 12.9833 30.35C12.6833 30.0333 12.5 29.6 12.5 29.1667C12.5 28.7333 12.6833 28.3 12.9833 27.9833C13.15 27.8333 13.3167 27.7166 13.5333 27.6333C14.15 27.3666 14.8833 27.5167 15.35 27.9833C15.65 28.3 15.8333 28.7333 15.8333 29.1667C15.8333 29.6 15.65 30.0333 15.35 30.35C15.0333 30.65 14.6 30.8333 14.1667 30.8333Z" fill="#5E88BB"/>
</svg>
