<svg width="40" height="40" viewBox="0 0 40 40" fill="none" xmlns="http://www.w3.org/2000/svg">
<path opacity="0.4" d="M36.6667 20C36.6667 29.1167 29.35 36.5167 20.2667 36.6667H20C18.9834 36.6667 17.9834 36.5667 17.0167 36.4C9.23337 34.9834 3.33337 28.1834 3.33337 20C3.33337 17.15 4.05004 14.4667 5.31671 12.1167C5.83337 11.1667 6.43337 10.25 7.11671 9.41671C10.1834 5.70004 14.8167 3.33337 20 3.33337C25.9334 3.33337 31.1334 6.43337 34.0834 11.1C34.6667 12.0167 35.1667 13 35.5667 14.0334C36.2834 15.8834 36.6667 17.9 36.6667 20Z" fill="#5E88BB"/>
<path d="M25.1667 13.3666C28.6333 13.0833 32.1167 13.3 35.5667 14.0333C35.1667 13 34.6667 12.0166 34.0833 11.1C29.3 10.3166 24.4667 10.4666 19.7 11.5C15.65 11.6333 12.35 14.6333 11.7333 18.55C9.79998 15.75 8.23332 12.7 7.11665 9.41663C6.43332 10.25 5.83332 11.1666 5.31665 12.1166C7.08332 16.6 9.56665 20.6 12.75 24.1166C12.7833 24.15 12.8333 24.1666 12.8667 24.2C14.3833 26.65 17.0667 28.1666 19.95 28.1666C20.9667 28.1666 21.95 27.9666 22.8667 27.6166C21.35 30.8 19.4167 33.75 17.0167 36.4C17.9833 36.5666 18.9833 36.6666 20 36.6666H20.2667C23.35 32.9 25.6833 28.6333 27.25 23.8333C27.9333 22.6 28.3 21.2166 28.3 19.8166C28.3 17.2 27.0667 14.9 25.1667 13.3666ZM24.8833 22.6833C23.8833 24.4333 21.9833 25.5333 19.95 25.5333C17.9167 25.5333 16.0333 24.4333 15.0167 22.6833C14.5 21.7833 14.25 20.8333 14.25 19.8166C14.25 16.6666 16.8 14.1166 19.95 14.1166C23.1 14.1166 25.6667 16.6666 25.6667 19.8166C25.6667 20.8333 25.4 21.7833 24.8833 22.6833Z" fill="#5E88BB"/>
</svg>
