<svg width="57" height="57" viewBox="0 0 57 57" fill="none" xmlns="http://www.w3.org/2000/svg">
<path d="M36.6707 22.097L22.5285 36.2391C22.0454 36.7223 21.244 36.7223 20.7608 36.2391C20.2776 35.7559 20.2776 34.9545 20.7608 34.4713L34.9029 20.3292C35.3861 19.846 36.1875 19.846 36.6707 20.3292C37.1539 20.8124 37.1539 21.6138 36.6707 22.097Z" fill="#292D32"/>
<path d="M36.6707 36.2392C36.1875 36.7223 35.3861 36.7223 34.9029 36.2392L20.7608 22.097C20.2776 21.6138 20.2776 20.8124 20.7608 20.3293C21.244 19.8461 22.0454 19.8461 22.5285 20.3293L36.6707 34.4714C37.1539 34.9546 37.1539 35.756 36.6707 36.2392Z" fill="#292D32"/>
</svg>
