<svg width="50" height="50" viewBox="0 0 50 50" fill="none" xmlns="http://www.w3.org/2000/svg">
<path d="M0 25C0 11.1929 11.1929 0 25 0C38.8071 0 50 11.1929 50 25C50 38.8071 38.8071 50 25 50C11.1929 50 0 38.8071 0 25Z" fill="#A1A5B7" fill-opacity="0.3"/>
<path d="M29.7834 14.5001C29.627 15.27 29.627 16.0635 29.7834 16.8334H16.2629L25.0712 24.6057L30.9617 19.3324C31.4587 19.9472 32.0794 20.4594 32.7852 20.8316L25.084 27.7277L15.6667 19.4187V33.1667H34.3334V21.3834C35.1033 21.5398 35.8968 21.5398 36.6667 21.3834V34.3334C36.6667 34.6428 36.5438 34.9396 36.325 35.1584C36.1062 35.3772 35.8095 35.5001 35.5 35.5001H14.5C14.1906 35.5001 13.8939 35.3772 13.6751 35.1584C13.4563 34.9396 13.3334 34.6428 13.3334 34.3334V15.6667C13.3334 15.3573 13.4563 15.0606 13.6751 14.8418C13.8939 14.623 14.1906 14.5001 14.5 14.5001H29.7834ZM35.5 19.1667C35.0404 19.1667 34.5853 19.0762 34.1606 18.9003C33.736 18.7244 33.3502 18.4666 33.0252 18.1416C32.7002 17.8166 32.4424 17.4308 32.2665 17.0061C32.0906 16.5815 32 16.1264 32 15.6667C32 15.2071 32.0906 14.752 32.2665 14.3274C32.4424 13.9027 32.7002 13.5169 33.0252 13.1919C33.3502 12.8669 33.736 12.6091 34.1606 12.4332C34.5853 12.2573 35.0404 12.1667 35.5 12.1667C36.4283 12.1667 37.3185 12.5355 37.9749 13.1919C38.6313 13.8483 39 14.7385 39 15.6667C39 16.595 38.6313 17.4852 37.9749 18.1416C37.3185 18.798 36.4283 19.1667 35.5 19.1667Z" fill="#0F1858"/>
</svg>
