<svg width="40" height="40" viewBox="0 0 40 40" fill="none" xmlns="http://www.w3.org/2000/svg">
<path opacity="0.4" d="M26.9833 3.33337H13.0166C6.94998 3.33337 3.33331 6.95004 3.33331 13.0167V26.9834C3.33331 33.05 6.94998 36.6667 13.0166 36.6667H26.9833C33.05 36.6667 36.6666 33.05 36.6666 26.9834V13.0167C36.6666 6.95004 33.05 3.33337 26.9833 3.33337Z" fill="#5E88BB"/>
<path d="M30.5167 14.7833C30.5167 15.4667 29.9667 16.0333 29.2667 16.0333H20.5167C19.8333 16.0333 19.2667 15.4667 19.2667 14.7833C19.2667 14.1 19.8333 13.5333 20.5167 13.5333H29.2667C29.9667 13.5333 30.5167 14.1 30.5167 14.7833Z" fill="#5E88BB"/>
<path d="M16.6166 13.1668L12.8666 16.9168C12.6166 17.1668 12.3 17.2834 11.9833 17.2834C11.6666 17.2834 11.3333 17.1668 11.1 16.9168L9.84998 15.6668C9.34998 15.1834 9.34998 14.3834 9.84998 13.9001C10.3333 13.4168 11.1166 13.4168 11.6166 13.9001L11.9833 14.2668L14.85 11.4001C15.3333 10.9168 16.1166 10.9168 16.6166 11.4001C17.1 11.8834 17.1 12.6834 16.6166 13.1668Z" fill="#5E88BB"/>
<path d="M30.5167 26.4501C30.5167 27.1334 29.9667 27.7001 29.2667 27.7001H20.5167C19.8333 27.7001 19.2667 27.1334 19.2667 26.4501C19.2667 25.7667 19.8333 25.2001 20.5167 25.2001H29.2667C29.9667 25.2001 30.5167 25.7667 30.5167 26.4501Z" fill="#5E88BB"/>
<path d="M16.6166 24.8334L12.8666 28.5834C12.6166 28.8334 12.3 28.9501 11.9833 28.9501C11.6666 28.9501 11.3333 28.8334 11.1 28.5834L9.84998 27.3334C9.34998 26.8501 9.34998 26.0501 9.84998 25.5667C10.3333 25.0834 11.1166 25.0834 11.6166 25.5667L11.9833 25.9334L14.85 23.0667C15.3333 22.5834 16.1166 22.5834 16.6166 23.0667C17.1 23.5501 17.1 24.3501 16.6166 24.8334Z" fill="#5E88BB"/>
</svg>
