<svg width="40" height="40" viewBox="0 0 40 40" fill="none" xmlns="http://www.w3.org/2000/svg">
<path d="M32.4666 4.70002L32.9333 5.65001C33.1666 6.11668 33.7499 6.55002 34.2666 6.65002L34.8999 6.75002C36.7999 7.06668 37.2499 8.46669 35.8833 9.85002L35.2999 10.4333C34.9166 10.8333 34.7 11.6 34.8166 12.1333L34.8999 12.4834C35.4166 14.7834 34.2 15.6667 32.2 14.4667L31.7666 14.2167C31.2499 13.9167 30.4166 13.9167 29.8999 14.2167L29.4666 14.4667C27.4499 15.6833 26.2333 14.7834 26.7666 12.4834L26.8499 12.1333C26.9666 11.6 26.75 10.8333 26.3666 10.4333L25.7833 9.85002C24.4166 8.46669 24.8666 7.06668 26.7666 6.75002L27.3999 6.65002C27.8999 6.56669 28.4999 6.11668 28.7333 5.65001L29.1999 4.70002C30.0999 2.88336 31.5666 2.88336 32.4666 4.70002Z" fill="#5E88BB"/>
<path opacity="0.4" d="M36.6667 16.1167V25.8334C36.6667 31.6667 33.3334 34.1667 28.3334 34.1667H11.6667C6.66671 34.1667 3.33337 31.6667 3.33337 25.8334V14.1667C3.33337 8.33337 6.66671 5.83337 11.6667 5.83337H23.4167C23.0834 6.20004 22.8334 6.63338 22.6833 7.11671C22.2 8.61671 22.6834 10.2501 24.0167 11.6001L24.3334 11.9167C23.6501 14.9334 25.0667 16.35 25.7167 16.8167C26.0834 17.0834 26.8334 17.5 27.9 17.5C28.6834 17.5 29.65 17.2667 30.7667 16.6001L30.8334 16.5667L30.9001 16.6001C33.5334 18.1834 35.3167 17.2834 35.9501 16.8167C36.1501 16.6834 36.4167 16.45 36.6667 16.1167Z" fill="#5E88BB"/>
<path d="M20 21.45C18.6 21.45 17.1833 21.0167 16.1 20.1333L10.8833 15.9667C10.35 15.5333 10.25 14.75 10.6833 14.2167C11.1166 13.6833 11.8999 13.5833 12.4333 14.0167L17.6499 18.1833C18.9166 19.2 21.0666 19.2 22.3333 18.1833C22.8666 17.75 23.65 17.8333 24.0833 18.3833C24.5166 18.9167 24.4333 19.7167 23.8833 20.1333C22.8166 21.0167 21.4 21.45 20 21.45Z" fill="#5E88BB"/>
</svg>
