<svg width="40" height="40" viewBox="0 0 40 40" fill="none" xmlns="http://www.w3.org/2000/svg">
<path d="M28.3333 37.9166H11.6666C10.9833 37.9166 10.4166 37.35 10.4166 36.6666C10.4166 35.9833 10.9833 35.4166 11.6666 35.4166H28.3333C29.0166 35.4166 29.5833 35.9833 29.5833 36.6666C29.5833 37.35 29.0166 37.9166 28.3333 37.9166Z" fill="#5E88BB"/>
<path opacity="0.4" d="M30 31.6667H10C6.31671 31.6667 3.33337 28.6834 3.33337 25V10C3.33337 6.31671 6.31671 3.33337 10 3.33337H30C33.6834 3.33337 36.6667 6.31671 36.6667 10V25C36.6667 28.6834 33.6834 31.6667 30 31.6667Z" fill="#5E88BB"/>
<path d="M28.7666 15.1167H22.6333C21.95 15.1167 21.3833 14.55 21.3833 13.8667C21.3833 13.1834 21.95 12.6167 22.6333 12.6167H28.7666C29.45 12.6167 30.0166 13.1834 30.0166 13.8667C30.0166 14.55 29.4666 15.1167 28.7666 15.1167Z" fill="#5E88BB"/>
<path d="M16.6667 15.5333C15.75 15.5333 15 14.7833 15 13.8666C15 12.95 15.7333 12.2 16.6667 12.2C17.5833 12.2 18.3333 12.95 18.3333 13.8666C18.3333 14.7833 17.6 15.5333 16.6667 15.5333Z" fill="#5E88BB"/>
<path d="M11.4167 15.5333C10.5 15.5333 9.75 14.7833 9.75 13.8666C9.75 12.95 10.4833 12.2 11.4167 12.2H11.4333C12.35 12.2 13.1 12.95 13.1 13.8666C13.1 14.7833 12.3333 15.5333 11.4167 15.5333Z" fill="#5E88BB"/>
<path d="M28.7667 24.7666H11.2501C10.5667 24.7666 9.9834 24.1999 9.9834 23.5166C9.9834 22.8333 10.5334 22.2666 11.2167 22.2666H28.7667C29.45 22.2666 30.0167 22.8333 30.0167 23.5166C30.0167 24.1999 29.4667 24.7666 28.7667 24.7666Z" fill="#5E88BB"/>
</svg>
