<svg width="50" height="50" viewBox="0 0 50 50" fill="none" xmlns="http://www.w3.org/2000/svg">
<rect width="50" height="50" rx="25" fill="#A1A5B7" fill-opacity="0.3"/>
<path d="M35.5 30.1567V34.282C35.5001 34.5774 35.3882 34.8618 35.1869 35.0779C34.9855 35.294 34.7096 35.4257 34.415 35.4463C33.9052 35.4813 33.4887 35.5 33.1667 35.5C22.8568 35.5 14.5 27.1432 14.5 16.8333C14.5 16.5113 14.5175 16.0948 14.5537 15.585C14.5743 15.2904 14.706 15.0145 14.9221 14.8131C15.1382 14.6118 15.4226 14.4999 15.718 14.5H19.8433C19.988 14.4999 20.1276 14.5535 20.235 14.6505C20.3424 14.7475 20.4099 14.881 20.4243 15.025C20.4512 15.2933 20.4757 15.5068 20.499 15.669C20.7309 17.2871 21.206 18.8608 21.9083 20.3368C22.0192 20.5702 21.9468 20.849 21.7368 20.9983L19.2192 22.7973C20.7585 26.3842 23.617 29.2426 27.2038 30.782L29.0005 28.269C29.0739 28.1663 29.1811 28.0927 29.3032 28.0609C29.4254 28.0292 29.5549 28.0413 29.669 28.0952C31.1449 28.7962 32.7182 29.2701 34.3357 29.501C34.4978 29.5243 34.7113 29.55 34.9773 29.5757C35.1211 29.5904 35.2543 29.658 35.3511 29.7653C35.4479 29.8727 35.5013 30.0121 35.5012 30.1567H35.5Z" fill="#0F1858"/>
</svg>
