<svg width="40" height="40" viewBox="0 0 40 40" fill="none" xmlns="http://www.w3.org/2000/svg">
<path opacity="0.4" d="M26.9834 3.33337H13.0167C6.95004 3.33337 3.33337 6.95004 3.33337 13.0167V26.9667C3.33337 33.05 6.95004 36.6667 13.0167 36.6667H26.9667C33.0334 36.6667 36.65 33.05 36.65 26.9834V13.0167C36.6667 6.95004 33.05 3.33337 26.9834 3.33337Z" fill="#5E88BB"/>
<path d="M11.4667 31.5C10.7833 31.5 10.2167 30.9334 10.2167 30.25V26.8C10.2167 26.1167 10.7833 25.55 11.4667 25.55C12.15 25.55 12.7167 26.1167 12.7167 26.8V30.25C12.7167 30.95 12.15 31.5 11.4667 31.5Z" fill="#5E88BB"/>
<path d="M20 31.5C19.3167 31.5 18.75 30.9334 18.75 30.25V23.3334C18.75 22.65 19.3167 22.0834 20 22.0834C20.6833 22.0834 21.25 22.65 21.25 23.3334V30.25C21.25 30.95 20.6833 31.5 20 31.5Z" fill="#5E88BB"/>
<path d="M28.5333 31.5001C27.85 31.5001 27.2833 30.9334 27.2833 30.2501V19.8834C27.2833 19.2001 27.85 18.6334 28.5333 18.6334C29.2167 18.6334 29.7833 19.2001 29.7833 19.8834V30.2501C29.7833 30.9501 29.2333 31.5001 28.5333 31.5001Z" fill="#5E88BB"/>
<path d="M29.7833 9.7C29.7833 9.61667 29.75 9.51667 29.7333 9.43333C29.7167 9.36667 29.7 9.28333 29.6833 9.21667C29.65 9.15 29.6 9.1 29.5667 9.03333C29.5167 8.96667 29.4667 8.88333 29.4 8.83333C29.3833 8.81667 29.3833 8.8 29.3667 8.8C29.3167 8.76667 29.2667 8.75 29.2167 8.71667C29.15 8.66667 29.0667 8.61667 28.9833 8.58333C28.9 8.55 28.8167 8.55 28.7333 8.53333C28.6667 8.51667 28.6167 8.5 28.55 8.5H23.6667C22.9833 8.5 22.4167 9.06667 22.4167 9.75C22.4167 10.4333 22.9833 11 23.6667 11H25.75C21.7833 15.1667 16.7833 18.1 11.1667 19.5167C10.5 19.6833 10.0833 20.3667 10.25 21.0333C10.3833 21.6 10.9 21.9833 11.4667 21.9833C11.5667 21.9833 11.6667 21.9667 11.7667 21.95C17.7167 20.4667 23.0333 17.3833 27.2833 13.0167V14.6333C27.2833 15.3167 27.85 15.8833 28.5333 15.8833C29.2167 15.8833 29.7833 15.3167 29.7833 14.6333V9.75C29.7833 9.73333 29.7833 9.71667 29.7833 9.7Z" fill="#5E88BB"/>
</svg>
