<svg width="40" height="40" viewBox="0 0 40 40" fill="none" xmlns="http://www.w3.org/2000/svg">
<path opacity="0.4" d="M26.9834 3.33337H13.0167C6.95004 3.33337 3.33337 6.95004 3.33337 13.0167V26.9667C3.33337 33.05 6.95004 36.6667 13.0167 36.6667H26.9667C33.0334 36.6667 36.65 33.05 36.65 26.9834V13.0167C36.6667 6.95004 33.05 3.33337 26.9834 3.33337Z" fill="#5E88BB"/>
<path d="M11.6667 23.9167C10.9834 23.9167 10.4167 23.35 10.4167 22.6667V17.3334C10.4167 16.65 10.9834 16.0834 11.6667 16.0834C12.3501 16.0834 12.9167 16.65 12.9167 17.3334V22.6834C12.9167 23.3667 12.3501 23.9167 11.6667 23.9167Z" fill="#5E88BB"/>
<path d="M20 26.8167C19.3167 26.8167 18.75 26.25 18.75 25.5667V14.4333C18.75 13.75 19.3167 13.1833 20 13.1833C20.6833 13.1833 21.25 13.75 21.25 14.4333V25.5667C21.25 26.25 20.6833 26.8167 20 26.8167Z" fill="#5E88BB"/>
<path d="M28.3334 23.9167C27.65 23.9167 27.0834 23.35 27.0834 22.6667V17.3334C27.0834 16.65 27.65 16.0834 28.3334 16.0834C29.0167 16.0834 29.5834 16.65 29.5834 17.3334V22.6834C29.5834 23.3667 29.0167 23.9167 28.3334 23.9167Z" fill="#5E88BB"/>
</svg>
