<svg width="18" height="19" viewBox="0 0 18 19" fill="none" xmlns="http://www.w3.org/2000/svg">
<g clip-path="url(#clip0_602_208)">
<mask id="mask0_602_208" style="mask-type:luminance" maskUnits="userSpaceOnUse" x="0" y="0" width="18" height="18">
<path d="M17.5502 0.513428H0.450165V17.6134H17.5502V0.513428Z" fill="white"/>
</mask>
<g mask="url(#mask0_602_208)">
<path d="M1.79977 7.79691V2.99415C1.79977 2.82055 1.86874 2.65407 1.99149 2.53132C2.11424 2.40857 2.28073 2.3396 2.45432 2.3396H15.5453C15.719 2.3396 15.8854 2.40857 16.0081 2.53132C16.1309 2.65407 16.1998 2.82055 16.1998 2.99415V7.79691C16.1998 14.6697 10.3663 16.9442 9.20438 17.3288C9.07238 17.3777 8.92727 17.3777 8.79528 17.3288C7.63346 16.9442 1.79977 14.6697 1.79977 7.79691Z" fill="#0F1858" stroke="#0F1858" stroke-width="0.764394" stroke-linecap="round" stroke-linejoin="round"/>
<path d="M12.5994 6.92065L7.79666 11.5025L5.39938 9.21161" stroke="#F5F5F5" stroke-linecap="round" stroke-linejoin="round"/>
</g>
</g>
<defs>
<clipPath id="clip0_602_208">
<rect width="18" height="18" fill="white" transform="translate(0 0.0627441)"/>
</clipPath>
</defs>
</svg>
